<svg xmlns="http://www.w3.org/2000/svg" width="88" height="80" viewBox="0 0 88 80" fill="none"><path fill-rule="evenodd" clip-rule="evenodd" d="M78.6063 48.0198L65.4912 57.4412L63.8491 70.3123H47.7699C47.7699 70.3123 45.1393 72.7928 43.2726 72.7928C41.4059 72.7928 38.7753 70.3123 38.7753 70.3123H22.6961L21.054 57.4412L7.93959 48.0198C5.97063 40.2739 8.98889 35.7005 8.98889 35.7005L32.2081 59.1671L9.63919 31.6869C8.94277 30.7582 13.3078 22.7669 15.3048 22.0276L35.5511 56.9499L17.5337 18.748C17.9775 17.2714 23.9533 12.2911 26.914 12.327L39.2665 55.3789L30.211 10.4795C33.3222 8.16985 39.1268 7.61604 41.4025 8.07744L43.2893 55.194L45.1433 8.07744C47.4184 7.61604 53.223 8.16985 56.3342 10.4795L47.2793 55.3789L59.6311 12.327C62.5926 12.2911 68.5676 17.2714 69.0121 18.748L50.994 56.9499L71.2404 22.0276C73.2374 22.7669 77.6024 30.7582 76.906 31.6869L54.3371 59.1671L77.5563 35.7005C77.5563 35.7005 80.5746 40.2739 78.6063 48.0198ZM43.6367 0C16.4898 0 -4.93447 25.3812 0.992818 52.0056C1.99669 52.9996 14.3445 61.6177 14.3445 61.6177L16.2965 77.9297C16.2965 77.9297 36.3452 77.8745 38.9099 77.9848C38.9099 77.9848 40.5144 80 43.6354 80C46.7591 80 48.3628 77.9848 48.3628 77.9848C50.9276 77.8745 70.9762 77.9297 70.9762 77.9297L72.9282 61.6177C72.9282 61.6177 85.2767 52.9996 86.2799 52.0056C92.2072 25.3812 70.7829 0 43.6367 0Z" fill="#6A7383"></path></svg>