<svg xmlns="http://www.w3.org/2000/svg" width="160" height="30" viewBox="0 0 160 30" fill="none"><g clip-path="url(#clip0_4081_2539)"><path d="M151.777 4.92417C152.08 4.62699 152.488 4.46137 152.913 4.46325H153.065V5.53489C152.569 5.62795 152.113 5.86873 151.756 6.22569C151.399 6.58265 151.158 7.03913 151.065 7.53529H149.166L151.777 4.92417ZM153.966 6.45673C154.104 6.49834 154.236 6.55801 154.358 6.63419H155.614C155.429 6.34832 155.187 6.10322 154.904 5.91383C154.62 5.72443 154.301 5.59472 153.966 5.53259V4.46094H155.158C155.565 4.46094 155.956 4.62289 156.245 4.91117C156.533 5.19945 156.695 5.59043 156.695 5.99812C156.695 6.4058 156.533 6.79679 156.245 7.08506C155.956 7.37334 155.565 7.53529 155.158 7.53529H153.966V6.45673ZM156.695 9.97357C156.695 10.1751 156.655 10.3747 156.577 10.5608C156.5 10.7469 156.387 10.9159 156.244 11.0582C156.101 11.2005 155.932 11.3133 155.745 11.3902C155.559 11.467 155.359 11.5064 155.158 11.5061H153.966V10.4414C154.301 10.3793 154.62 10.2496 154.904 10.0602C155.187 9.87078 155.429 9.62568 155.614 9.33981H154.358C154.236 9.41599 154.104 9.47566 153.966 9.51726V8.4387H155.158C155.565 8.4387 155.956 8.60034 156.244 8.88812C156.532 9.17589 156.694 9.56629 156.695 9.97357ZM151.922 7.987C151.923 7.64193 152.036 7.30647 152.244 7.03097C152.451 6.75546 152.743 6.55478 153.074 6.45904V9.51496C152.743 9.41922 152.451 9.21853 152.244 8.94303C152.036 8.66752 151.923 8.33206 151.922 7.987ZM153.519 14.1034C152.105 14.1025 150.734 13.6109 149.641 12.7123C148.549 11.8138 147.801 10.564 147.527 9.17618L148.262 8.44331H151.065C151.158 8.94021 151.399 9.39742 151.756 9.75485C152.113 10.1123 152.571 10.3532 153.068 10.446V12.4119H155.16C155.677 12.4128 156.181 12.2492 156.599 11.9446C157.016 11.6401 157.326 11.2105 157.483 10.718C157.64 10.2255 157.637 9.6958 157.473 9.20561C157.308 8.71542 156.992 8.29021 156.571 7.99161C156.997 7.69361 157.316 7.26718 157.483 6.7746C157.65 6.28202 157.654 5.74909 157.496 5.25362C157.339 4.75814 157.027 4.32609 156.606 4.02054C156.185 3.71499 155.678 3.55195 155.158 3.55523H152.908C152.246 3.55443 151.61 3.8144 151.139 4.27888L147.405 8.01004V7.9893C147.406 6.60755 147.875 5.26686 148.736 4.18609C149.597 3.10531 150.799 2.34828 152.145 2.03858C153.492 1.72887 154.904 1.88479 156.15 2.48086C157.397 3.07694 158.404 4.07798 159.009 5.32056H159.995C159.375 3.82185 158.255 2.58429 156.826 1.81859C155.396 1.0529 153.745 0.806399 152.154 1.12107C150.563 1.43574 149.13 2.29212 148.1 3.54441C147.069 4.7967 146.504 6.36748 146.502 7.9893C146.501 8.28287 146.52 8.57615 146.557 8.86736L143.059 12.3658H144.333L146.774 9.92748C147.175 11.3228 147.999 12.5592 149.133 13.4661C150.267 14.3729 151.655 14.9054 153.104 14.9901C154.554 15.0748 155.994 14.7076 157.225 13.9391C158.457 13.1705 159.42 12.0386 159.981 10.6995H159C158.495 11.7224 157.714 12.5838 156.746 13.1861C155.777 13.7885 154.66 14.1078 153.519 14.108" fill="#6A7383"></path><path d="M135.854 16.3413C134.982 15.3128 133.864 14.5203 132.605 14.0367C131.015 13.4464 129.389 12.9561 127.738 12.5687C125.829 12.1293 124.411 11.6845 123.483 11.2343C122.561 10.7734 122.1 10.082 122.1 9.16017C122.094 8.71512 122.202 8.27586 122.413 7.8839C122.624 7.49195 122.931 7.16023 123.306 6.92009C124.112 6.35315 125.358 6.06969 127.042 6.06969C129.443 6.06969 131.845 6.77797 134.248 8.19454L136.085 3.43782C134.807 2.6252 133.406 2.02441 131.937 1.65866C130.347 1.24718 128.711 1.03964 127.069 1.04102C124.691 1.04102 122.678 1.41437 121.031 2.16106C119.384 2.90776 118.155 3.91948 117.344 5.19624C116.527 6.46857 116.101 7.95242 116.118 9.46438C116.118 11.2681 116.57 12.7108 117.475 13.7924C118.337 14.8447 119.457 15.6567 120.725 16.1501C122.31 16.7372 123.93 17.2259 125.576 17.6135C126.865 17.9208 127.887 18.2042 128.641 18.4639C129.322 18.6787 129.953 19.0265 130.498 19.4871C130.732 19.6846 130.919 19.9321 131.044 20.2114C131.169 20.4906 131.23 20.7944 131.222 21.1004C131.222 21.9761 130.813 22.6775 129.996 23.2045C129.179 23.7315 127.916 23.9957 126.207 23.9973C124.639 23.9918 123.082 23.7311 121.598 23.2252C120.169 22.7651 118.826 22.0729 117.623 21.1764L117.005 20.6786L116.314 26.4125C117.521 27.1746 118.832 27.7597 120.206 28.1502C122.142 28.7312 124.154 29.0224 126.175 29.0144C128.553 29.0144 130.572 28.6411 132.232 27.8944C133.891 27.1477 135.135 26.1367 135.965 24.8615C136.789 23.605 137.222 22.1326 137.21 20.6302C137.21 18.828 136.757 17.3984 135.852 16.3413" fill="#6A7383"></path><path d="M37.4298 0.978516C34.6566 0.97806 31.9455 1.80001 29.6394 3.3404C27.3333 4.8808 25.5358 7.07047 24.4742 9.63248C23.4126 12.1945 23.1346 15.0138 23.6754 17.7338C24.2161 20.4538 25.5514 22.9524 27.5122 24.9135C29.473 26.8746 31.9713 28.2103 34.6913 28.7515C37.4112 29.2927 40.2305 29.0151 42.7927 27.954C45.3549 26.8928 47.5448 25.0956 49.0856 22.7898C50.6264 20.484 51.4488 17.773 51.4488 14.9998C51.4488 11.2815 49.9719 7.71549 47.3429 5.08606C44.7139 2.45663 41.1481 0.979127 37.4298 0.978516ZM37.4298 23.4208C35.7596 23.4213 34.1268 22.9264 32.7379 21.9989C31.349 21.0713 30.2663 19.7527 29.6268 18.2097C28.9874 16.6668 28.8198 14.9689 29.1454 13.3308C29.4709 11.6926 30.275 10.1878 31.4558 9.00667C32.6367 7.82551 34.1413 7.02106 35.7793 6.69505C37.4174 6.36905 39.1153 6.53613 40.6584 7.17518C42.2015 7.81423 43.5204 8.89653 44.4484 10.2852C45.3763 11.6739 45.8716 13.3065 45.8716 14.9767C45.8716 17.2158 44.9823 19.3633 43.3992 20.9468C41.8161 22.5303 39.6689 23.4202 37.4298 23.4208Z" fill="#6A7383"></path><path d="M103.249 1.44629V16.9333C103.249 18.5836 102.594 20.1663 101.427 21.3332C100.26 22.5002 98.6771 23.1557 97.0268 23.1557C95.3765 23.1557 93.7938 22.5002 92.6269 21.3332C91.4599 20.1663 90.8043 18.5836 90.8043 16.9333V1.63527H84.9414V16.9333C84.9414 20.1385 86.2147 23.2125 88.4811 25.4789C90.7476 27.7454 93.8215 29.0187 97.0268 29.0187C100.232 29.0187 103.306 27.7454 105.572 25.4789C107.839 23.2125 109.112 20.1385 109.112 16.9333V1.44629H103.249Z" fill="#6A7383"></path><path d="M55.9993 1.44873L55.3125 7.11116H64.0631V28.6063H69.9606V7.11116H78.7412L78.0544 1.44873H55.9993Z" fill="#6A7383"></path><path d="M0 1.44873V28.6063H19.8081L20.4995 22.9024H5.8975V1.44873H0Z" fill="#6A7383"></path></g><defs><clipPath id="clip0_4081_2539"><rect width="160" height="28.0425" fill="white" transform="translate(0 0.978516)"></rect></clipPath></defs></svg>