<svg xmlns="http://www.w3.org/2000/svg" width="160" height="40" viewBox="0 0 160 40" fill="none"><path d="M147.826 39.3004C154.459 39.3004 160 36.4862 160 29.5977C160 25.6494 157.331 23.0452 153.043 21.9112C148.635 20.7771 142.932 20.9451 142.932 17.9629C143.256 15.9887 144.995 15.4846 147.664 15.4846C151.79 15.4846 151.951 17.7949 152.113 19.265H158.908C158.422 13.8466 154.176 10.0664 147.381 10.0664C140.263 10.0664 136.137 14.0146 136.137 19.097C136.137 22.0372 137.553 24.6834 139.939 25.9855C141.678 26.7835 144.024 27.4556 146.896 27.9597C149.889 28.2956 152.598 28.6315 152.76 30.7318C152.76 32.2019 151.345 34.0079 148.19 34.0079C143.62 34.0079 142.649 31.3619 142.649 29.5556H135.49C135.652 35.352 140.222 39.3004 147.826 39.3004ZM110.657 24.6834C110.657 28.9677 114.297 32.7478 118.584 32.7478C122.669 32.7478 126.147 28.9677 126.147 24.6834C126.147 20.273 122.669 16.4928 118.584 16.4928C114.297 16.4508 110.657 20.231 110.657 24.6834ZM118.22 39.3004C110.455 39.3004 103.984 32.706 103.984 24.6834C103.984 16.4929 110.455 10.0664 118.22 10.0664C121.213 10.0664 123.923 10.9065 126.147 12.5445V10.4024H132.942V38.6283H126.147V36.8221C123.923 38.2924 121.254 39.3004 118.22 39.3004ZM79.5145 24.6834C79.5145 28.9677 83.1547 32.7478 87.2397 32.7478C91.4862 32.7478 95.1264 28.9677 95.1264 24.6834C95.1264 20.273 91.4862 16.4928 87.2397 16.4928C83.1547 16.4508 79.5145 20.231 79.5145 24.6834ZM95.1667 0.699707H101.8V38.6283H95.1667V36.8221C92.9423 38.2924 90.1112 39.3004 87.1182 39.3004C79.3528 39.3004 73.0434 32.706 73.0434 24.6834C73.0434 16.4929 79.3528 10.0664 87.1182 10.0664C90.1112 10.0664 92.821 10.9065 95.1667 12.5445V0.699707ZM63.5388 0.699707H70.1718V7.75613H63.5388V0.699707ZM70.1718 38.6283H63.5388V10.4024H70.1718V38.6283ZM37.6137 24.6834C37.6137 28.9677 41.2537 32.7478 45.6622 32.7478C49.7472 32.7478 53.3871 28.9677 53.3871 24.6834C53.3871 20.273 49.7472 16.4928 45.6622 16.4928C41.2537 16.4508 37.6137 20.231 37.6137 24.6834ZM45.3792 39.3004C37.6137 39.3004 31.1425 32.706 31.1425 24.6834C31.1425 16.4929 37.6137 10.0664 45.3792 10.0664C48.372 10.0664 51.0818 10.9065 53.4277 12.5445V0.699707H60.2224V38.6283H53.4277V36.8221C51.0415 38.2924 48.372 39.3004 45.3792 39.3004ZM6.47119 24.6834C6.47119 28.9677 10.1112 32.7478 14.1961 32.7478C18.6046 32.7478 22.2446 28.9677 22.2446 24.6834C22.2446 20.273 18.6046 16.4928 14.1961 16.4928C10.1112 16.4508 6.47119 20.231 6.47119 24.6834ZM14.0748 39.3004C6.3094 39.3004 0 32.706 0 24.6834C0 16.4929 6.3094 10.0664 14.0748 10.0664C17.0677 10.0664 19.9393 10.9065 22.2851 12.5445V10.4024H28.9181V38.6283H22.2851V36.8221C19.8989 38.2924 17.2295 39.3004 14.0748 39.3004Z" fill="#6A7383"></path></svg>