<svg xmlns="http://www.w3.org/2000/svg" width="175" height="32" viewBox="0 0 175 32" fill="none"><path d="M17.9992 11.8224C17.9992 15.8073 16.0717 18.5062 11.1904 18.5062H9.64797V5.81517C10.1963 5.78417 10.7084 5.78417 11.1904 5.78417C15.8124 5.78374 17.9992 7.96803 17.9992 11.8224ZM12.9886 24.032C21.7227 24.032 27.2449 19.5329 27.2449 11.6954C27.2445 3.0835 21.3368 0 11.7042 0C7.97895 0 3.48356 0.25623 0.273438 0.641667V31.3588H9.64841V24.032H12.9886ZM138.599 11.8224C138.599 15.8073 136.674 18.5062 131.791 18.5062H130.254V5.81517C130.797 5.78417 131.31 5.78417 131.791 5.78417C136.414 5.78374 138.599 7.96803 138.599 11.8224ZM133.594 24.032C142.321 24.032 147.846 19.5329 147.846 11.6954C147.846 3.0835 141.939 0 132.306 0C128.581 0 124.083 0.25623 120.873 0.641667V31.3588H130.253V24.032H133.594ZM160.046 8.48092C160.046 6.81084 161.717 6.03866 164.412 6.03866C167.367 6.03866 170.58 6.68163 172.762 7.58477L171.992 0.899644C169.55 0.385437 167.367 0 163.387 0C155.808 0 150.672 2.98921 150.672 9.25442C150.672 20.0471 165.316 17.8641 165.316 22.8761C165.316 24.802 163.901 25.8295 160.432 25.8295C157.354 25.8295 152.599 24.802 149.774 23.389L150.804 30.4596C153.627 31.4875 157.48 32 160.563 32C168.396 32 174.819 29.429 174.819 21.7167C174.819 11.4391 160.046 13.365 160.046 8.48092ZM113.812 0.641667H104.437V31.3588H113.812V0.641667ZM75.7936 0.641667H66.4178V31.3588H75.7936V0.641667ZM92.1049 25.1878V0.641667H82.729V31.3588H99.6842L101.096 25.1878H92.1049ZM59.4828 0.641667H50.107V12.8508H40.3456V0.641667H30.968V31.3588H40.3452V19.2767H50.1065V31.3588H59.4824L59.4828 0.641667Z" fill="#6A7383"></path></svg>