<svg xmlns="http://www.w3.org/2000/svg" width="80" height="80" viewBox="0 0 80 80" fill="none"><path fill-rule="evenodd" clip-rule="evenodd" d="M43.9828 21.3735C41.7723 23.5797 38.7036 23.4019 36.6228 21.325L33.4407 18.1408C31.7485 16.4517 31.1413 13.3162 33.8942 10.5684L36.315 8.15198C37.5862 6.88315 38.9789 6.26087 40.3634 6.26087C41.7561 6.26087 43.1326 6.89126 44.3713 8.14391L47.1405 10.9077C49.6666 13.4293 48.7598 16.6053 46.938 18.4237L43.9828 21.3735ZM31.4574 33.7908C30.8265 34.4408 30.0742 34.521 30.0742 34.521L31.9266 36.359C32.9458 37.3702 32.8002 38.2851 32.0156 39.0636C31.3361 39.7378 30.4221 40.0106 29.3058 38.9031L20.9176 30.5805C19.227 28.9031 18.6204 25.7891 21.3705 23.0604L23.7892 20.6607C25.0591 19.4006 26.4504 18.7827 27.8336 18.7827C29.2168 18.7907 30.6001 19.4166 31.8538 20.6527L34.6203 23.3974C37.144 25.9015 36.238 29.0556 34.418 30.8614L31.4574 33.7908ZM21.2471 40.3519L16.5315 35.6363C16.2837 35.3726 15.8682 35.0289 15.2528 35.0289C14.7332 35.0289 14.2297 35.3566 13.7262 35.8521L11.2325 38.3457C10.705 38.9452 10.3933 39.8723 11.2325 40.7115L16.5794 46.0584C17.1069 46.6019 17.2828 46.9696 17.2828 47.5131C17.2828 48.4562 16.4675 49.3913 15.4046 49.3913C14.8052 49.3913 14.3097 49.0157 13.5983 48.2804L8.53106 43.2131C7.58794 42.2381 6.95653 41.0232 6.95653 39.5765C6.95653 37.7862 8.07548 36.3556 8.4831 35.9159L11.4163 32.9748C12.4394 31.9677 13.95 31.3043 15.2927 31.3043C17.0669 31.3043 18.1939 32.1276 19.7205 33.6542L24.3402 38.2738C24.9395 38.8892 25.0355 39.2329 25.0434 39.7204C25.0434 40.5996 24.3082 41.6067 23.1893 41.6067C22.39 41.6067 21.8625 40.9433 21.2471 40.3519ZM44.6331 1.92212C42.0703 -0.640705 37.9297 -0.640705 35.3669 1.92212L1.92212 35.3669C-0.640705 37.9377 -0.640705 42.0703 1.92212 44.6331L35.3669 78.0779C37.9297 80.6407 42.0703 80.6407 44.6331 78.0779L78.0779 44.6331C80.6407 42.0703 80.6407 37.9297 78.0779 35.3669L44.6331 1.92212ZM41.5646 11.2511C41.0014 10.6862 40.5027 10.4521 40.0603 10.4359C39.489 10.4117 38.9822 10.7588 38.4994 11.2592L36.1182 13.6482C35.1448 14.6248 35.3941 15.6256 36.1182 16.352L38.5638 18.8056C39.3603 19.6046 40.4303 19.7983 41.4278 18.7975L43.793 16.4166C44.6699 15.5287 44.855 14.5603 43.793 13.4949L41.5646 11.2511ZM29.0348 23.7731C28.4717 23.2075 27.981 22.9732 27.5384 22.9571C26.9673 22.9409 26.4685 23.2883 25.9778 23.765L23.5965 26.1563C22.623 27.1419 22.8724 28.1436 23.5965 28.8707L26.0421 31.3267C26.8386 32.1265 27.9086 32.3204 28.9061 31.3186L31.2713 28.9434C32.1482 28.0548 32.3333 27.0854 31.2713 26.0189L29.0348 23.7731Z" fill="#6A7383"></path></svg>