<svg xmlns="http://www.w3.org/2000/svg" width="80" height="80" viewBox="0 0 80 80" fill="none"><path fill-rule="evenodd" clip-rule="evenodd" d="M8.59519 35.4116C11.7754 37.5359 15.5142 38.6696 19.3386 38.669C24.4642 38.663 29.3778 36.6242 33.0023 32.9997C36.6265 29.3755 38.6653 24.4617 38.6716 19.3362C38.6722 15.5117 37.5385 11.7729 35.414 8.59274C33.2897 5.41257 30.2698 2.93381 26.7365 1.46997C23.2033 0.00613192 19.3153 -0.377025 15.5642 0.368958C11.8132 1.11494 8.36763 2.95655 5.66333 5.66088C2.959 8.36521 1.11738 11.8108 0.371397 15.5618C-0.374583 19.3128 0.008574 23.2008 1.47241 26.7341C2.93626 30.2675 5.41499 33.2871 8.59519 35.4116ZM9.92562 5.24837C12.712 3.38716 15.9878 2.39403 19.3386 2.39461C23.8295 2.40151 28.1343 4.18871 31.3095 7.36449C34.4848 10.5402 36.2711 14.8454 36.2774 19.3362C36.2774 22.6871 35.2837 25.9627 33.422 28.7487C31.5603 31.5349 28.9141 33.7063 25.8183 34.9885C22.7225 36.2708 19.316 36.6059 16.0295 35.9519C12.7431 35.2982 9.72442 33.6843 7.3552 31.3146C4.986 28.945 3.3727 25.9261 2.71933 22.6396C2.06596 19.353 2.40187 15.9466 3.68458 12.8509C4.96729 9.75531 7.1392 7.10958 9.92562 5.24837ZM60.6644 38.6714C56.8402 38.6714 53.1017 37.5371 49.9218 35.4126C46.7419 33.2878 44.2637 30.2676 42.8003 26.7344C41.3369 23.2011 40.9541 19.3132 41.7006 15.5623C42.4469 11.8115 44.2885 8.36622 46.993 5.6622C49.6975 2.95816 53.1432 1.11683 56.8939 0.371089C60.645 -0.374658 64.5329 0.00866785 68.0659 1.47259C71.599 2.9365 74.6186 5.41527 76.7428 8.59538C78.8674 11.7755 80.0008 15.5142 80.0002 19.3385C79.9948 24.4648 77.9559 29.3794 74.3309 33.0041C70.7056 36.6286 65.7908 38.6668 60.6644 38.6714ZM60.6644 2.39695C57.3136 2.39695 54.0383 3.39055 51.2524 5.25213C48.4662 7.11368 46.2948 9.75961 45.0125 12.8553C43.7303 15.9509 43.3949 19.3573 44.0483 22.6437C44.702 25.93 46.3156 28.9488 48.685 31.3182C51.0544 33.6872 54.0729 35.3009 57.3593 35.9546C60.6455 36.6083 64.052 36.2729 67.1477 34.9906C70.2433 33.7084 72.8892 31.5367 74.7509 28.7508C76.6126 25.9648 77.606 22.6893 77.606 19.3385C77.6005 14.847 75.814 10.541 72.6381 7.36496C69.4622 4.18895 65.156 2.40232 60.6644 2.39695ZM12.1991 19.3798V19.3393C12.1991 14.8988 15.5207 11.2583 20.2539 11.2583C23.135 11.2583 24.8712 12.2641 26.3697 13.6901L24.6075 15.7191C23.3553 14.5597 22.0162 13.78 20.2365 13.78C17.2714 13.7829 15.0773 16.235 15.0773 19.2958V19.3393C15.0773 22.3972 17.2366 24.8695 20.2279 24.8695C22.1496 24.8695 23.3727 24.1101 24.7089 22.8638L26.4799 24.6406C24.8538 26.3362 23.0684 27.4086 20.1438 27.4086C15.5874 27.4173 12.1991 23.8696 12.1991 19.3798ZM13.7163 52.8566H19.5394C24.4436 52.8566 27.8406 56.2276 27.8406 60.6246V60.6652C27.8406 65.062 24.4494 68.491 19.5394 68.491H13.7163V52.8566ZM16.4612 55.3639V65.9868H19.5394C22.8175 65.9868 24.9595 63.7751 24.9595 60.7172V60.6738C24.9595 57.6159 22.8175 55.3639 19.5394 55.3639H16.4612ZM66.6221 52.8566H55.0427V68.4764H66.7324V66.0185H57.7875V61.8275H65.6136V59.3695H57.7875V55.3116H66.6221V52.8566ZM60.6644 80.0023C56.8402 80.0023 53.1018 78.8683 49.9221 76.7438C46.7425 74.619 44.264 71.5994 42.8006 68.0661C41.3372 64.533 40.9541 60.6451 41.7003 56.8943C42.4463 53.1436 44.288 49.6982 46.9919 46.9943C49.6961 44.2901 53.1415 42.4484 56.8922 41.7025C60.643 40.9565 64.5309 41.3393 68.0639 42.8027C71.597 44.2661 74.6169 46.7446 76.7414 49.9242C78.8662 53.1042 80.0002 56.8423 80.0002 60.6665C79.9948 65.7933 77.956 70.7083 74.3309 74.333C70.7059 77.9581 65.7908 79.9969 60.6644 80.0023ZM60.6644 43.7278C57.3136 43.7278 54.038 44.7215 51.2518 46.5832C48.4659 48.4451 46.2945 51.0911 45.0122 54.187C43.73 57.2829 43.3946 60.6894 44.0486 63.9759C44.7025 67.2621 46.3165 70.2809 48.6859 72.6499C51.0555 75.0193 54.0746 76.6327 57.3611 77.2858C60.6476 77.9392 64.054 77.6035 67.1497 76.3207C70.2453 75.0379 72.891 72.8662 74.7523 70.0797C76.6134 67.2932 77.6065 64.0176 77.606 60.6665C77.6005 56.1755 75.814 51.8696 72.6378 48.694C69.4619 45.5186 65.1557 43.7327 60.6644 43.7278ZM8.59548 76.7452C11.7756 78.8695 15.5143 80.0029 19.3386 80.0023C24.4646 79.9963 29.379 77.9569 33.0032 74.3322C36.6276 70.7071 38.6662 65.7927 38.6716 60.6665C38.6716 56.8423 37.5373 53.1039 35.4125 49.9239C33.2877 46.744 30.2678 44.2658 26.7345 42.8024C23.2012 41.339 19.3133 40.9565 15.5624 41.7027C11.8116 42.449 8.36631 44.2907 5.6623 46.9952C2.95826 49.6997 1.11693 53.1453 0.371186 56.8963C-0.37456 60.6471 0.00876609 64.535 1.47269 68.068C2.9366 71.6011 5.41536 74.6207 8.59548 76.7452ZM9.9253 46.582C12.7118 44.7207 15.9877 43.7272 19.3386 43.7278C23.8292 43.7341 28.134 45.5206 31.3092 48.696C34.4845 51.8713 36.2711 56.1761 36.2774 60.6665C36.2779 64.0176 35.2848 67.2935 33.4234 70.08C31.5621 72.8665 28.9161 75.0384 25.8203 76.321C22.7245 77.6035 19.3179 77.9392 16.0313 77.2858C12.7447 76.6321 9.72571 75.0184 7.35623 72.6491C4.98672 70.2794 3.37313 67.2606 2.71954 63.9739C2.06593 60.6874 2.40168 57.2806 3.68429 54.185C4.96695 51.0891 7.13883 48.4431 9.9253 46.582Z" fill="#6A7383"></path></svg>