<svg xmlns="http://www.w3.org/2000/svg" width="200" height="30" viewBox="0 0 200 30" fill="none"><path fill-rule="evenodd" clip-rule="evenodd" d="M52.1166 0.280762L70.1433 18.3715V1.26753H75.0597V29.7193L56.8691 11.4641V28.7325H52.1166V0.280762ZM34.7407 20.6737C34.7407 20.6737 22.2859 1.59617 22.122 1.26725C23.9247 1.26725 25.7274 1.26725 27.53 1.10279C27.53 1.26725 39.657 19.358 39.657 19.358V28.7323H34.7407V20.6737ZM4.75248 1.2681H0V28.7331H17.8628V24.2926H4.75248V1.2681ZM94.2333 10.3949L94.233 10.3953C91.5698 13.4379 88.9066 16.4806 86.2026 19.5233V28.7331H90.9545V20.6745L90.975 20.6511L90.9754 20.6505L90.9756 20.6504C92.1162 19.3427 93.256 18.0361 94.3966 16.8919C94.466 16.9615 95.5038 18.4447 96.8767 20.407C98.748 23.0816 101.242 26.646 102.755 28.7331H108.49C106.688 26.1846 104.886 23.595 103.083 21.0055L103.083 21.0051L103.083 21.0045C101.28 18.4139 99.4767 15.8233 97.6739 13.2738C98.6431 12.1477 99.9932 10.5915 101.398 8.97206L101.402 8.96737L101.403 8.96701L101.403 8.96674C104.511 5.38432 107.885 1.49453 107.998 1.2681H102.263C99.5591 4.31035 96.8962 7.35262 94.2333 10.3949ZM155.849 24.4561C156.341 24.4561 156.668 24.4561 157.159 24.2917C159.29 23.7983 161.093 22.6471 162.404 21.0025C162.979 21.497 163.595 21.9915 164.211 22.4861L164.211 22.4862L164.211 22.4863C164.824 22.9785 165.437 23.4706 166.009 23.9628C162.732 28.4032 157.159 30.2123 151.916 28.8966C145.852 27.252 141.591 21.4958 141.591 15.0819C141.591 10.1481 143.886 5.70766 147.983 3.07628C152.898 -0.212932 159.454 -0.0484712 164.207 4.06305C163.715 4.63826 163.183 5.25452 162.651 5.87082L162.65 5.87197L162.65 5.87211C162.117 6.48884 161.584 7.10557 161.093 7.68119C159.454 6.3655 157.487 5.5432 155.357 5.5432C154.374 5.5432 153.39 5.70766 152.408 6.03658C149.785 6.85889 147.819 8.99685 146.835 11.6282C145.852 14.0951 146.18 16.562 146.835 18.3711C147.327 19.6868 148.31 21.0025 149.293 21.9892C150.441 23.1404 152.08 23.9628 153.718 24.2917C154.702 24.4561 155.521 24.4561 155.849 24.4561ZM129.463 24.6203C130.61 23.4691 131.757 22.3179 132.741 21.1667H128.808L127.496 22.4824C126.923 21.8245 126.349 21.1667 125.775 20.5088C125.202 19.851 124.628 19.1931 124.055 18.5353C124.104 18.4855 124.169 18.4357 124.24 18.3813C124.402 18.2561 124.596 18.1068 124.711 17.8774C125.529 17.2196 126.185 16.5617 126.841 15.5749C127.168 14.7526 127.66 13.437 127.168 11.9569C126.841 10.4767 125.693 9.32546 124.383 8.66759C121.596 7.35191 118.319 8.99654 117.663 11.9569C117.499 12.7792 117.499 13.7659 117.663 14.7526C117.914 15.0039 118.069 15.3512 118.201 15.6477L118.201 15.6479C118.242 15.7395 118.28 15.8263 118.319 15.9039C118.656 16.4675 119.07 16.9539 119.508 17.4689L119.508 17.469C119.709 17.7053 119.915 17.9477 120.122 18.2063C119.967 18.3301 119.807 18.4539 119.646 18.5788C118.95 19.1176 118.227 19.6768 117.827 20.3444C117.759 20.4806 117.663 20.6169 117.551 20.7765C117.392 21.0022 117.2 21.2747 117.008 21.6601C116.681 22.3179 116.681 23.1401 116.681 23.9625C116.844 25.6071 117.663 26.9228 118.811 27.9095C119.794 28.5674 120.778 29.0608 121.924 29.2252H123.399C123.563 29.2252 123.686 29.1841 123.809 29.143C123.932 29.1019 124.055 29.0608 124.219 29.0608C124.711 28.8963 125.366 28.5674 125.857 28.2385C126.104 28.0738 126.35 27.8267 126.617 27.5591C126.883 27.2921 127.169 27.0047 127.496 26.7583C128.152 27.4162 128.808 28.2385 129.299 28.8963H133.068C132.042 27.5728 130.886 26.2493 129.832 25.0433L129.831 25.0428L129.83 25.0415C129.706 24.8994 129.583 24.7589 129.463 24.6203ZM120.286 12.2858C120.45 11.9569 120.614 11.6279 120.941 11.299C121.432 10.9701 121.924 10.8056 122.58 10.8056C123.891 10.9701 124.711 11.9569 124.711 13.1081C124.711 13.9799 124.199 14.4665 123.853 14.7949L123.853 14.7952C123.808 14.8384 123.765 14.8789 123.727 14.9171L123.235 15.4105C123.175 15.4707 123.071 15.5529 122.94 15.6571L122.94 15.6572C122.712 15.8378 122.4 16.0845 122.088 16.3973C121.432 15.7394 120.941 15.0816 120.614 14.5882C120.582 14.4615 120.544 14.3288 120.505 14.1911C120.342 13.6138 120.153 12.9498 120.286 12.2858ZM124.628 25.1136L124.628 25.1137C124.423 25.2781 124.219 25.4426 124.055 25.6071C123.891 25.7715 123.563 25.936 123.563 25.936C123.481 25.936 123.44 25.9771 123.399 26.0182C123.358 26.0593 123.317 26.1005 123.235 26.1005C123.153 26.1005 123.03 26.1416 122.908 26.1827L122.908 26.1827L122.908 26.1827C122.785 26.2238 122.662 26.2649 122.58 26.2649C122.252 26.2649 121.76 26.2649 121.269 25.936C120.286 25.4426 119.63 24.6203 119.63 23.6335C119.63 23.1401 119.63 22.8112 119.794 22.4824C119.794 22.3179 119.958 22.1534 120.122 21.989C120.45 21.3311 121.105 20.8377 122.088 20.1799C122.662 20.8377 123.276 21.5367 123.891 22.2356C124.505 22.9346 125.12 23.6335 125.693 24.2914C125.529 24.3736 125.448 24.4558 125.386 24.5175C125.325 24.5792 125.284 24.6203 125.202 24.6203C125.038 24.7847 124.833 24.9492 124.628 25.1136ZM173.383 16.7276H178.135C178.627 20.0168 180.758 22.6482 183.379 23.635C184.854 24.2928 186.493 24.4572 187.968 24.1283C189.279 23.7994 190.59 23.3061 191.737 22.3193C194.032 20.3457 195.178 17.5499 195.178 14.7541C195.178 12.1227 194.196 9.65577 192.393 7.84675C191.245 6.69553 189.607 5.87322 187.968 5.5443C186.002 5.21538 183.379 5.5443 181.085 7.51783C180.293 6.72305 179.423 6.00666 178.583 5.31454C178.206 5.00413 177.835 4.6986 177.48 4.39307C179.938 1.92616 183.215 0.610472 186.657 0.610472C190.59 0.610472 194.36 2.58401 196.817 5.70876C200.095 9.65577 200.587 14.9186 199.439 19.03C198.457 22.1548 196.49 24.9506 193.868 26.7597C191.409 28.5688 188.951 29.0622 186.984 29.0622C185.182 29.0622 183.707 28.7332 182.56 28.4043C181.905 28.2399 181.249 27.9109 180.594 27.582C180.496 27.5163 180.365 27.4375 180.207 27.3429C179.578 26.964 178.529 26.3324 177.48 25.2795C175.185 22.9771 173.71 20.0168 173.383 16.7276Z" fill="#6A7383"></path></svg>