<svg xmlns="http://www.w3.org/2000/svg" width="110" height="64" viewBox="0 0 110 64" fill="none"><g clip-path="url(#clip0_4331_9512)"><path d="M34.3076 30.3368C34.2196 27.9773 34.2604 25.6116 34.2856 23.2521C48.1047 23.2923 61.9239 23.2614 75.743 23.2676C75.7462 25.6178 75.7462 27.9649 75.743 30.3121C61.9302 30.3275 48.1173 30.2812 34.3076 30.3368ZM53.0396 0.571289H56.4905C56.5188 1.72324 56.5156 2.87211 56.5094 4.02406C57.6628 4.02097 58.8194 4.02715 59.9728 4.01789C59.9822 5.14822 59.9822 6.27856 59.9476 7.40889C58.8036 7.40889 57.6565 7.41507 56.5125 7.40889C56.5125 8.5207 56.5094 9.63559 56.5188 10.7505C55.3811 10.8215 54.2434 10.8061 53.1056 10.7968C53.0994 9.66647 53.0994 8.53305 53.0931 7.39963C51.9365 7.41507 50.7831 7.40889 49.6296 7.41198C49.6108 6.28473 49.6139 5.1544 49.6108 4.02715C50.7736 4.02406 51.9365 4.02097 53.0962 4.02715C53.0711 2.8752 53.1748 1.71707 53.0396 0.571289ZM81.7295 15.8886C81.7295 16.6642 81.5741 17.4323 81.272 18.1489C80.9699 18.8655 80.5272 19.5166 79.969 20.0651C79.4109 20.6135 78.7483 21.0486 78.019 21.3454C77.2898 21.6423 76.5082 21.795 75.7188 21.795C74.1247 21.795 72.5958 21.1727 71.4686 20.0651C70.3414 18.9574 69.7081 17.4551 69.7081 15.8886C69.7081 14.3221 70.3414 12.8197 71.4686 11.7121C72.5958 10.6044 74.1247 9.9821 75.7188 9.9821C77.313 9.9821 78.8418 10.6044 79.969 11.7121C81.0963 12.8197 81.7295 14.3221 81.7295 15.8886ZM67.9167 15.8886C67.9167 16.6642 67.7612 17.4323 67.4591 18.1489C67.1571 18.8655 66.7143 19.5166 66.1562 20.0651C65.598 20.6135 64.9354 21.0486 64.2062 21.3454C63.4769 21.6423 62.6953 21.795 61.906 21.795C60.3118 21.795 58.783 21.1727 57.6557 20.0651C56.5285 18.9574 55.8952 17.4551 55.8952 15.8886C55.8952 14.3221 56.5285 12.8197 57.6557 11.7121C58.783 10.6044 60.3118 9.9821 61.906 9.9821C63.5001 9.9821 65.029 10.6044 66.1562 11.7121C67.2834 12.8197 67.9167 14.3221 67.9167 15.8886ZM54.1038 15.8887C54.1038 17.4552 53.4705 18.9575 52.3433 20.0652C51.2161 21.1729 49.6872 21.7951 48.0931 21.7951C46.499 21.7951 44.9701 21.1729 43.8429 20.0652C42.7157 18.9575 42.0824 17.4552 42.0824 15.8887C42.0824 14.3222 42.7157 12.8198 43.8429 11.7122C44.9701 10.6045 46.499 9.98221 48.0931 9.98221C49.6872 9.98221 51.2161 10.6045 52.3433 11.7122C53.4705 12.8198 54.1038 14.3222 54.1038 15.8887ZM40.291 15.8887C40.291 17.4552 39.6577 18.9575 38.5305 20.0652C37.4032 21.1729 35.8744 21.7951 34.2802 21.7951C32.6861 21.7951 31.1573 21.1729 30.03 20.0652C28.9028 18.9575 28.2695 17.4552 28.2695 15.8887C28.2695 14.3222 28.9028 12.8198 30.03 11.7122C31.1573 10.6045 32.6861 9.98221 34.2802 9.98221C35.8744 9.98221 37.4032 10.6045 38.5305 11.7122C39.6577 12.8198 40.291 14.3222 40.291 15.8887Z" fill="#6A7383"></path><path d="M64.9409 36.3188C70.686 36.3003 76.4311 36.3559 82.1763 36.291C83.9897 41.1366 85.5769 46.0656 87.2897 50.9483C87.4311 50.729 87.6323 50.5437 87.7046 50.2874C89.342 45.6271 91.0171 40.9791 92.6703 36.3219C98.4469 36.3157 104.223 36.3126 110 36.325V63.3974C106.464 63.4407 102.925 63.4129 99.3897 63.4129C99.3834 57.1806 99.4211 50.9452 99.3709 44.7099C98.8774 44.9816 98.8271 45.5962 98.6166 46.0564C96.5643 51.847 94.4586 57.6191 92.4063 63.4098C89.0811 63.4098 85.7529 63.453 82.4309 63.3882C80.3471 57.4678 78.1911 51.5752 76.0886 45.6641C76.0131 45.3337 75.8246 45.0928 75.5291 44.9384C75.5197 51.0966 75.5323 57.2578 75.526 63.4191C71.9966 63.4191 68.4671 63.4191 64.9377 63.416C64.944 54.3856 64.9346 45.3522 64.9409 36.3188ZM0 36.3188C3.48857 36.3188 6.97714 36.3157 10.4689 36.3219C10.4751 39.6017 10.4626 42.8846 10.472 46.1676C13.9323 42.9124 17.314 39.5801 20.7743 36.325C24.2911 36.3157 27.808 36.3157 31.3249 36.325C27.2706 40.3738 23.1063 44.3176 19.0834 48.3943C24.1529 53.2244 29.0494 58.2337 34.1629 63.0114C34.2069 54.117 34.1691 45.2194 34.1817 36.3219C37.7489 36.3157 41.316 36.3157 44.8831 36.3219C44.8831 43.0699 44.8769 49.818 44.8831 56.566C50.5811 56.5506 56.276 56.5845 61.9709 56.5475C62.0494 58.836 61.9834 61.1275 62.0086 63.416C48.1611 63.416 34.3106 63.4283 20.4631 63.4098C17.1883 60.1516 13.8694 56.9366 10.5789 53.6939C10.5317 56.9397 10.5851 60.1825 10.5506 63.4283C7.03371 63.4036 3.51686 63.4314 0 63.4129L0 36.3188Z" fill="#6A7383"></path></g><defs><clipPath id="clip0_4331_9512"><rect width="110" height="62.8571" fill="white" transform="translate(0 0.571289)"></rect></clipPath></defs></svg>