<svg xmlns="http://www.w3.org/2000/svg" width="230" height="100" viewBox="0 0 230 100" fill="none"><path fill-rule="evenodd" clip-rule="evenodd" d="M79.4507 37.5068H71.3945V62.4922H79.4507C87.7576 62.4922 94.0584 59.702 94.0584 49.9995C94.0897 40.3288 87.5069 37.5068 79.4507 37.5068ZM79.7015 57.419H77.1937V42.3898V42.1361H79.7015C84.2468 42.1361 88.0084 43.1507 88.0084 49.7776C88.0084 56.4044 83.996 57.419 79.7015 57.419Z" fill="#6A7383"></path><path fill-rule="evenodd" clip-rule="evenodd" d="M116.001 37.5068V42.6117H102.898V46.9556H115.248V52.3142H102.898V57.419H116.001V62.4922H96.8477V37.5068H116.001Z" fill="#6A7383"></path><path fill-rule="evenodd" clip-rule="evenodd" d="M136.947 45.1805C136.445 43.4049 134.69 41.8512 131.398 41.8512C127.856 41.8512 125.098 44.6415 125.098 49.7463C125.098 55.1049 127.605 57.8951 131.649 57.8951C134.408 57.8951 137.197 56.8805 137.197 53.5512V53.2976H131.148V48.4463H142.997V62.461H138.451L138.201 59.6707C136.696 61.9537 134.157 63 130.646 63C123.342 63 118.797 57.8951 118.797 50C118.797 42.1049 123.844 37 131.398 37C136.947 37 141.492 39.7902 142.495 45.1488L136.947 45.1805Z" fill="#6A7383"></path><path fill-rule="evenodd" clip-rule="evenodd" d="M147.254 62.4922H153.053V37.5068H147.254V62.4922Z" fill="#6A7383"></path><path fill-rule="evenodd" clip-rule="evenodd" d="M173.495 52.061C176.254 51.0464 178.291 48.9854 178.291 45.1805C178.291 39.061 173.495 37.5391 166.944 37.5391H157.352V62.5244H163.151V53.0756H167.445L172.743 62.5244H179.545L173.495 52.061ZM166.944 47.9708H163.151V42.3586H166.944C169.702 42.3586 171.74 42.8659 171.74 45.1488C171.74 47.4317 169.702 47.9708 166.944 47.9708Z" fill="#6A7383"></path><path fill-rule="evenodd" clip-rule="evenodd" d="M193.145 37C185.591 37 180.293 42.1049 180.293 50C180.293 57.8951 185.591 63 193.145 63C200.7 63 205.997 57.8951 205.997 50C205.997 42.1049 200.7 37 193.145 37ZM193.396 58.1805C189.854 58.1805 186.844 55.3902 186.844 50.0317C186.844 44.6732 189.885 41.8829 193.396 41.8829C196.938 41.8829 199.947 44.6732 199.947 50.0317C199.947 55.3585 196.938 58.1805 193.396 58.1805Z" fill="#6A7383"></path><path fill-rule="evenodd" clip-rule="evenodd" d="M24 47.4629H65.3466V37.5068H24V47.4629Z" fill="#6A7383"></path><path fill-rule="evenodd" clip-rule="evenodd" d="M24 62.492H65.3466V52.314H24V62.492Z" fill="#6A7383"></path></svg>