<svg xmlns="http://www.w3.org/2000/svg" width="266" height="266" viewBox="0 0 266 266" fill="none"><path d="M64.1886 34.1406L63.4296 32.9638L66.8701 30.7405C68.3657 29.7748 68.2355 28.5127 67.1979 26.9137L63.4969 21.1779L59.6028 23.6932L58.8438 22.5164L63.0523 19.799C63.8203 19.3004 64.2605 19.3813 64.7276 20.1089L68.8014 26.4151C70.2028 28.589 69.9063 30.4485 67.948 31.7151L64.1886 34.1406Z" fill="#FFB1CD"></path><path d="M72.3646 18.5772C74.8709 17.2432 77.476 18.119 78.7156 20.4502C79.9643 22.7993 79.2366 25.4448 76.7304 26.7788C74.2062 28.1218 71.6056 27.2459 70.3569 24.8968C69.1173 22.5657 69.8449 19.9157 72.3691 18.5772L72.3646 18.5772ZM76.0836 25.5751C77.8757 24.6228 78.1677 22.7993 77.3143 21.1958C76.4699 19.6102 74.7945 18.8332 73.0024 19.7854C71.1924 20.7466 70.9004 22.5702 71.7448 24.1557C72.5982 25.7592 74.2735 26.5363 76.0836 25.5751Z" fill="#FFB1CD"></path><path d="M80.1457 14.9615L84.7764 12.9448L85.3199 14.198L81.0036 16.0799L84.0218 23.0149L82.5531 23.6527L79.4809 16.601C79.1441 15.8284 79.3642 15.2984 80.1412 14.9615L80.1457 14.9615Z" fill="#FFB1CD"></path><path d="M89.8557 10.8834C92.344 10.003 94.5044 10.9373 95.4252 13.5469L95.6183 14.0904L88.926 16.4529C89.5593 18.0789 90.8663 19.0266 92.609 18.4113C94.0508 17.9037 94.6347 16.8572 94.5089 15.5861L96.0001 15.0605C96.2112 16.7404 95.6452 18.6942 93.0537 19.606C90.3093 20.5762 88.2118 19.067 87.336 16.5787C86.3703 13.8523 87.4528 11.7368 89.8602 10.8834L89.8557 10.8834ZM93.7678 13.5424C93.1255 12.0557 91.7826 11.5391 90.2734 12.0692C88.8855 12.5587 88.1444 13.8119 88.5666 15.3794L93.7678 13.5424Z" fill="#FFB1CD"></path><path d="M96.6094 8.81688L98.1589 8.41713L98.7653 10.7662C98.8372 9.09536 99.7849 7.81077 101.698 7.32119C103.683 6.80915 105.197 7.7928 105.799 10.1239L107.142 15.3252L105.592 15.7249L104.294 10.6989C103.836 8.92468 102.978 8.40366 101.501 8.78544C99.6232 9.27053 98.8416 11.0672 99.4435 13.3983L100.391 17.0679L98.8417 17.4677L96.6094 8.82137L96.6094 8.81688Z" fill="#FFB1CD"></path><path d="M120.168 13.4885C116.346 13.9107 114.132 12.3701 113.781 9.20801L115.425 9.02386C115.69 11.4358 117.267 12.415 120.051 12.1096C122.23 11.867 123.119 11.063 122.962 9.67064C122.854 8.68699 122.126 8.00876 120.622 7.79766L117.002 7.27663C114.963 6.98019 114.015 5.92916 113.849 4.42898C113.606 2.25056 115.048 0.916564 117.94 0.59317C121.367 0.211386 123.357 1.65767 123.658 4.37059L121.996 4.55474C121.776 2.55599 120.465 1.68911 118.093 1.94963C116.256 2.15175 115.34 2.88837 115.484 4.17296C115.582 5.06678 116.193 5.68662 117.608 5.88874L121.188 6.37832C123.281 6.67027 124.413 7.73927 124.597 9.39666C124.848 11.6469 123.528 13.1112 120.168 13.484L120.168 13.4885Z" fill="#FFB1CD"></path><path d="M126.236 11.4402C126.2 10.5958 126.82 9.90409 127.696 9.86816C128.558 9.83222 129.268 10.4655 129.304 11.31C129.339 12.1544 128.684 12.864 127.826 12.9C126.946 12.9359 126.272 12.2801 126.236 11.4402Z" fill="#FFB1CD"></path><path d="M138.596 0.00449156L147.373 0.660261L147.269 2.05714L140.119 1.52264L139.804 5.74922L146.057 6.21634L145.953 7.57729L139.701 7.11016L139.382 11.3547L146.533 11.8892L146.429 13.2861L137.648 12.6303L138.592 -1.653e-08L138.596 0.00449156Z" fill="#FFB1CD"></path><path d="M149.49 4.68457L151.066 4.94059L150.68 7.3346C151.412 5.83441 152.8 5.0394 154.749 5.35381C156.77 5.6817 157.763 7.18638 157.381 9.56691L156.523 14.8715L154.947 14.6154L155.778 9.49056C156.07 7.68045 155.495 6.85849 153.986 6.61595C152.068 6.30603 150.635 7.64003 150.253 10.0161L149.647 13.7576L148.07 13.5015L149.494 4.68457L149.49 4.68457Z" fill="#FFB1CD"></path><path d="M159.31 10.8564C159.984 8.22887 162.05 6.7736 164.52 7.4114C166.451 7.90997 167.417 9.19456 167.646 10.6858L168.199 8.54328L169.73 8.93854L166.905 19.9159C166.725 20.6121 166.249 20.8771 165.432 20.6705L158.82 18.9682L159.162 17.6477L165.427 19.2602L165.962 17.1896L165.98 17.1896L166.532 15.0561C165.585 16.2778 164.111 16.9021 162.211 16.4125C159.741 15.7747 158.641 13.4885 159.319 10.8654L159.31 10.8564ZM163.051 15.2133C164.758 15.6534 166.487 14.9842 167.035 12.8462C167.579 10.7397 166.388 9.30236 164.682 8.86667C162.993 8.43099 161.416 9.08227 160.855 11.2607C160.294 13.4391 161.358 14.7866 163.047 15.2178L163.051 15.2133Z" fill="#FFB1CD"></path><path d="M173.91 5.74473L175.415 6.28371L173.241 12.3384C174.256 11.2694 175.774 10.7663 177.633 11.4356C180.05 12.3069 180.921 14.6605 180.005 17.2117C179.089 19.7629 176.91 21.043 174.489 20.1762C172.679 19.5249 171.803 18.1999 171.691 16.6503L170.95 18.7119L169.445 18.1684L173.914 5.74023L173.91 5.74473ZM174.458 18.7164C176.097 19.3048 177.75 18.7928 178.514 16.6817C179.273 14.5707 178.316 13.1379 176.677 12.545C175.037 11.9566 173.227 12.4686 172.495 14.5168C171.749 16.5964 172.818 18.128 174.462 18.7164L174.458 18.7164Z" fill="#FFB1CD"></path><path d="M187.684 15.6085C190.078 16.7224 190.967 18.9008 189.8 21.4071L189.557 21.9281L183.125 18.9367C182.438 20.5402 182.708 22.1302 184.387 22.9118C185.771 23.5541 186.921 23.2172 187.72 22.2245L189.153 22.8893C188.129 24.2368 186.359 25.2339 183.866 24.0751C181.23 22.8489 180.785 20.3022 181.899 17.9081C183.121 15.2851 185.371 14.5305 187.684 15.6085ZM188.618 20.2438C189.202 18.7301 188.605 17.4231 187.154 16.7493C185.82 16.1295 184.414 16.5068 183.619 17.9171L188.618 20.2438Z" fill="#FFB1CD"></path><path d="M194.977 19.4753L199.383 21.9412L198.719 23.1314L194.609 20.8318L190.912 27.4299L189.516 26.6484L193.271 19.9379C193.684 19.2013 194.236 19.0576 194.973 19.4708L194.977 19.4753Z" fill="#FFB1CD"></path><path d="M197.433 27.3449L198.772 28.2162C197.968 29.4514 198.376 30.5968 199.764 31.4996C200.815 32.1868 201.574 32.2093 202.077 31.4412C202.41 30.9292 202.293 30.4216 201.646 29.703L200.029 27.812C199.342 27.0215 198.808 25.9031 199.585 24.7128C200.438 23.4013 202.001 23.3743 203.78 24.5287C205.706 25.7863 206.331 27.4572 205.271 29.0831L203.932 28.2117C204.521 27.3089 204.26 26.3253 203.119 25.5797C202.158 24.9509 201.296 24.9913 200.932 25.5482C200.609 26.0468 200.743 26.5633 201.345 27.255L202.769 28.89C203.798 30.0758 204.161 31.1942 203.407 32.353C202.522 33.7094 200.999 33.8083 199.073 32.5506C196.845 31.0998 196.238 29.1999 197.447 27.3494L197.433 27.3449Z" fill="#FFB1CD"></path><path d="M227.519 49.9373L226.603 50.8491L215.383 39.5798L216.299 38.668L227.519 49.9373Z" fill="#FFB1CD"></path><path d="M231.817 64.1307L232.994 63.3716L235.217 66.8122C236.183 68.3079 237.445 68.1731 239.044 67.1401L244.779 63.4345L242.264 59.5403L243.441 58.7812L246.163 62.9943C246.661 63.7624 246.581 64.2026 245.853 64.6697L239.542 68.7481C237.368 70.1539 235.509 69.8575 234.242 67.8947L231.813 64.1352L231.817 64.1307Z" fill="#FFB1CD"></path><path d="M247.381 72.2921C248.715 74.7984 247.839 77.4035 245.508 78.6432C243.159 79.8918 240.513 79.1642 239.179 76.6579C237.836 74.1336 238.712 71.533 241.057 70.2843C243.388 69.0447 246.033 69.7723 247.376 72.2921L247.381 72.2921ZM240.387 76.0156C241.339 77.8077 243.168 78.0997 244.767 77.2463C246.352 76.4019 247.129 74.7265 246.177 72.9344C245.216 71.1243 243.392 70.8368 241.802 71.6812C240.199 72.5346 239.422 74.21 240.387 76.0201L240.387 76.0156Z" fill="#FFB1CD"></path><path d="M251.011 80.0715L253.028 84.7023L251.775 85.2458L249.893 80.9294L242.958 83.9522L242.32 82.4835L249.372 79.4112C250.145 79.0744 250.674 79.2945 251.011 80.067L251.011 80.0715Z" fill="#FFB1CD"></path><path d="M255.09 89.7822C255.971 92.2706 255.041 94.431 252.431 95.3518L251.888 95.5449L249.521 88.857C247.895 89.4903 246.952 90.7973 247.567 92.54C248.075 93.9774 249.121 94.5613 250.392 94.4355L250.918 95.9267C249.238 96.1378 247.289 95.5719 246.368 92.9847C245.398 90.2404 246.902 88.1473 249.391 87.2624C252.117 86.2968 254.233 87.3747 255.086 89.7822L255.09 89.7822ZM252.436 93.6944C253.923 93.0521 254.439 91.7091 253.905 90.1999C253.411 88.812 252.162 88.0754 250.594 88.4931L252.436 93.6899L252.436 93.6944Z" fill="#FFB1CD"></path><path d="M257.162 96.5328L257.562 98.0824L255.212 98.6888C256.883 98.7561 258.168 99.7039 258.662 101.617C259.174 103.603 258.195 105.116 255.864 105.718L250.663 107.066L250.263 105.516L255.289 104.213C257.063 103.755 257.584 102.897 257.202 101.415C256.717 99.5377 254.916 98.7561 252.585 99.3625L248.915 100.315L248.516 98.7651L257.162 96.5283L257.162 96.5328Z" fill="#FFB1CD"></path><path d="M252.499 120.091C252.073 116.269 253.618 114.054 256.775 113.704L256.959 115.348C254.548 115.618 253.568 117.19 253.878 119.974C254.121 122.153 254.925 123.038 256.317 122.885C257.301 122.777 257.979 122.049 258.19 120.545L258.711 116.925C259.008 114.885 260.059 113.938 261.559 113.771C263.737 113.529 265.071 114.971 265.395 117.863C265.776 121.29 264.335 123.276 261.622 123.581L261.437 121.919C263.436 121.695 264.303 120.388 264.038 118.016C263.831 116.179 263.099 115.263 261.815 115.406C260.921 115.505 260.301 116.116 260.099 117.531L259.614 121.111C259.322 123.204 258.258 124.336 256.596 124.52C254.345 124.771 252.881 123.451 252.504 120.096L252.499 120.091Z" fill="#FFB1CD"></path><path d="M254.555 126.164C255.399 126.128 256.091 126.744 256.127 127.624C256.163 128.486 255.53 129.196 254.685 129.232C253.841 129.268 253.131 128.616 253.095 127.754C253.059 126.874 253.711 126.2 254.555 126.164Z" fill="#FFB1CD"></path><path d="M266 138.52L265.349 147.301L263.952 147.198L264.482 140.047L260.255 139.733L259.793 145.985L258.432 145.886L258.895 139.634L254.646 139.32L254.116 146.47L252.719 146.367L253.37 137.586L266 138.52Z" fill="#FFB1CD"></path><path d="M261.323 149.417L261.067 150.993L258.673 150.607C260.173 151.339 260.973 152.723 260.654 154.677C260.33 156.698 258.821 157.695 256.445 157.309L251.141 156.455L251.397 154.879L256.521 155.705C258.332 155.997 259.153 155.418 259.396 153.913C259.706 152 258.372 150.562 255.991 150.18L252.25 149.579L252.506 147.998L261.323 149.417Z" fill="#FFB1CD"></path><path d="M255.159 159.244C257.787 159.918 259.242 161.98 258.608 164.45C258.114 166.382 256.825 167.352 255.339 167.581L257.481 168.129L257.086 169.66L246.104 166.84C245.408 166.66 245.143 166.184 245.35 165.366L247.047 158.755L248.372 159.092L246.764 165.358L248.835 165.888L248.835 165.905L250.973 166.453C249.751 165.51 249.127 164.032 249.612 162.137C250.245 159.667 252.531 158.566 255.159 159.24L255.159 159.244ZM250.802 162.986C250.367 164.693 251.031 166.422 253.174 166.97C255.28 167.509 256.718 166.319 257.153 164.616C257.589 162.928 256.933 161.351 254.759 160.794C252.585 160.237 251.233 161.297 250.802 162.986Z" fill="#FFB1CD"></path><path d="M260.279 173.829L259.74 175.333L253.686 173.164C254.755 174.175 255.258 175.693 254.593 177.557C253.726 179.978 251.368 180.849 248.817 179.933C246.261 179.016 244.981 176.838 245.848 174.422C246.5 172.611 247.825 171.731 249.374 171.619L247.313 170.878L247.852 169.373L260.284 173.829L260.279 173.829ZM247.308 174.39C246.72 176.03 247.236 177.687 249.347 178.442C251.463 179.201 252.891 178.244 253.479 176.6C254.068 174.961 253.551 173.15 251.503 172.418C249.424 171.673 247.892 172.746 247.304 174.386L247.308 174.39Z" fill="#FFB1CD"></path><path d="M250.421 187.618C249.307 190.012 247.128 190.906 244.622 189.738L244.101 189.495L247.093 183.059C245.489 182.372 243.899 182.646 243.118 184.321C242.475 185.704 242.812 186.854 243.809 187.654L243.144 189.087C241.797 188.062 240.795 186.293 241.954 183.8C243.18 181.159 245.723 180.719 248.121 181.833C250.744 183.05 251.503 185.305 250.425 187.618L250.421 187.618ZM245.785 188.557C247.299 189.14 248.606 188.539 249.28 187.088C249.9 185.754 249.522 184.348 248.108 183.553L245.785 188.557Z" fill="#FFB1CD"></path><path d="M246.553 194.916L244.087 199.322L242.897 198.658L245.196 194.548L238.594 190.856L239.375 189.459L246.086 193.214C246.822 193.627 246.966 194.18 246.553 194.916Z" fill="#FFB1CD"></path><path d="M238.685 197.383L237.813 198.721C236.578 197.917 235.433 198.326 234.53 199.714C233.843 200.769 233.82 201.524 234.588 202.027C235.1 202.359 235.608 202.238 236.327 201.596L238.218 199.974C239.008 199.287 240.126 198.752 241.317 199.525C242.628 200.378 242.66 201.941 241.501 203.72C240.248 205.647 238.572 206.271 236.946 205.211L237.818 203.873C238.721 204.461 239.704 204.201 240.45 203.055C241.079 202.094 241.038 201.232 240.481 200.868C239.983 200.545 239.466 200.679 238.774 201.281L237.14 202.705C235.954 203.734 234.835 204.102 233.677 203.343C232.32 202.462 232.221 200.935 233.475 199.008C234.925 196.781 236.825 196.174 238.676 197.378L238.685 197.383Z" fill="#FFB1CD"></path><path d="M216.107 227.481L215.195 226.564L226.46 215.34L227.372 216.256L216.107 227.481Z" fill="#FFB1CD"></path><path d="M201.932 231.774L202.695 232.951L199.255 235.179C197.764 236.145 197.894 237.407 198.927 239.006L202.637 244.737L206.531 242.217L207.295 243.394L203.086 246.121C202.318 246.619 201.878 246.538 201.411 245.815L197.328 239.509C195.922 237.335 196.214 235.475 198.177 234.209L201.932 231.779L201.932 231.774Z" fill="#FFB1CD"></path><path d="M193.78 247.347C191.274 248.681 188.673 247.809 187.429 245.478C186.176 243.133 186.904 240.483 189.41 239.149C191.93 237.806 194.535 238.678 195.783 241.022C197.028 243.354 196.3 245.999 193.78 247.347ZM190.052 240.353C188.26 241.31 187.973 243.133 188.826 244.732C189.671 246.318 191.346 247.095 193.138 246.138C194.944 245.173 195.236 243.349 194.391 241.764C193.538 240.165 191.862 239.387 190.052 240.349L190.052 240.353Z" fill="#FFB1CD"></path><path d="M185.995 250.976L181.368 252.997L180.82 251.744L185.132 249.862L182.105 242.931L183.569 242.289L186.646 249.336C186.983 250.109 186.763 250.639 185.99 250.976L185.995 250.976Z" fill="#FFB1CD"></path><path d="M176.289 255.068C173.801 255.948 171.64 255.018 170.715 252.413L170.522 251.87L177.21 249.498C176.576 247.872 175.269 246.925 173.522 247.544C172.08 248.052 171.501 249.098 171.627 250.37L170.136 250.9C169.92 249.22 170.486 247.266 173.077 246.35C175.822 245.375 177.919 246.884 178.8 249.372C179.765 252.099 178.687 254.219 176.284 255.068L176.289 255.068ZM172.372 252.413C173.015 253.9 174.362 254.417 175.867 253.882C177.255 253.388 177.991 252.135 177.569 250.572L172.368 252.413L172.372 252.413Z" fill="#FFB1CD"></path><path d="M169.533 257.138L167.983 257.538L167.377 255.189C167.309 256.86 166.362 258.145 164.448 258.639C162.467 259.151 160.949 258.172 160.347 255.84L159 250.639L160.55 250.239L161.852 255.265C162.315 257.04 163.173 257.561 164.65 257.174C166.528 256.689 167.305 254.888 166.703 252.562L165.751 248.892L167.3 248.492L169.542 257.134L169.533 257.138Z" fill="#FFB1CD"></path><path d="M145.98 252.498C149.802 252.067 152.016 253.612 152.371 256.77L150.727 256.954C150.458 254.542 148.881 253.563 146.097 253.877C143.918 254.12 143.033 254.924 143.191 256.316C143.303 257.3 144.026 257.978 145.535 258.185L149.155 258.701C151.194 258.998 152.142 260.049 152.313 261.544C152.555 263.723 151.118 265.057 148.225 265.385C144.798 265.771 142.809 264.329 142.508 261.616L144.17 261.432C144.394 263.431 145.701 264.298 148.077 264.033C149.914 263.826 150.826 263.089 150.682 261.805C150.584 260.911 149.973 260.296 148.558 260.089L144.978 259.604C142.885 259.316 141.753 258.247 141.569 256.59C141.318 254.34 142.634 252.871 145.989 252.498L145.98 252.498Z" fill="#FFB1CD"></path><path d="M139.905 254.551C139.941 255.396 139.326 256.087 138.445 256.123C137.583 256.159 136.873 255.526 136.837 254.681C136.801 253.837 137.453 253.127 138.315 253.087C139.195 253.051 139.869 253.702 139.905 254.547L139.905 254.551Z" fill="#FFB1CD"></path><path d="M127.562 266.005L118.781 265.358L118.885 263.961L126.035 264.487L126.345 260.255L120.093 259.797L120.192 258.436L126.444 258.895L126.754 254.646L119.603 254.12L119.706 252.723L128.487 253.37L127.558 266.005L127.562 266.005Z" fill="#FFB1CD"></path><path d="M116.66 261.334L115.079 261.082L115.466 258.688C114.734 260.188 113.35 260.988 111.396 260.673C109.375 260.35 108.378 258.841 108.76 256.465L109.613 251.16L111.194 251.412L110.372 256.537C110.08 258.347 110.66 259.169 112.169 259.407C114.082 259.717 115.52 258.378 115.901 256.002L116.503 252.261L118.08 252.512L116.665 261.329L116.66 261.334Z" fill="#FFB1CD"></path><path d="M106.822 255.176C106.148 257.803 104.087 259.258 101.616 258.625C99.685 258.131 98.7149 256.842 98.4858 255.355L97.9379 257.498L96.4063 257.107L99.2179 246.125C99.3976 245.429 99.8737 245.164 100.691 245.371L107.303 247.064L106.966 248.384L100.7 246.781L100.17 248.852L100.152 248.852L99.6042 250.99C100.547 249.768 102.025 249.143 103.921 249.629C106.391 250.262 107.496 252.548 106.822 255.176ZM103.076 250.823C101.369 250.388 99.6401 251.057 99.0922 253.195C98.5532 255.301 99.7434 256.739 101.45 257.174C103.139 257.606 104.716 256.954 105.272 254.78C105.829 252.606 104.765 251.255 103.076 250.823Z" fill="#FFB1CD"></path><path d="M92.2467 260.3L90.742 259.761L92.9114 253.706C91.9008 254.775 90.3827 255.283 88.5232 254.618C86.1023 253.751 85.231 251.398 86.1427 248.842C87.059 246.286 89.2329 245.006 91.6538 245.873C93.4639 246.52 94.3442 247.845 94.4565 249.395L95.1931 247.333L96.6978 247.872L92.2467 260.305L92.2467 260.3ZM91.6808 247.328C90.0414 246.74 88.384 247.257 87.6294 249.372C86.8749 251.488 87.8315 252.916 89.4709 253.504C91.1103 254.093 92.9204 253.576 93.6525 251.528C94.3981 249.448 93.3246 247.917 91.6808 247.328Z" fill="#FFB1CD"></path><path d="M78.4516 250.455C76.0576 249.345 75.1638 247.167 76.3271 244.656L76.5696 244.135L83.0059 247.122C83.6886 245.518 83.4192 243.924 81.7393 243.147C80.3559 242.505 79.2061 242.841 78.4066 243.839L76.9738 243.174C77.9934 241.826 79.7676 240.825 82.2603 241.984C84.9013 243.21 85.346 245.752 84.2321 248.146C83.0149 250.769 80.7602 251.528 78.4471 250.455L78.4516 250.455ZM77.5128 245.819C76.9289 247.333 77.5308 248.64 78.9816 249.314C80.32 249.934 81.7214 249.556 82.5164 248.141L77.5128 245.819Z" fill="#FFB1CD"></path><path d="M71.1562 246.592L66.75 244.13L67.4147 242.94L71.5245 245.235L75.212 238.633L76.6088 239.414L72.8584 246.129C72.4452 246.866 71.8928 247.01 71.1562 246.596L71.1562 246.592Z" fill="#FFB1CD"></path><path d="M68.692 238.727L67.3536 237.856C68.1575 236.621 67.7443 235.475 66.3609 234.573C65.3054 233.885 64.5509 233.867 64.0478 234.635C63.7154 235.147 63.8367 235.655 64.4835 236.374L66.1049 238.265C66.7921 239.055 67.3266 240.174 66.5541 241.364C65.7007 242.675 64.1376 242.707 62.359 241.552C60.4322 240.299 59.8033 238.628 60.8633 237.002L62.2018 237.874C61.6134 238.777 61.8739 239.76 63.0193 240.506C63.9849 241.13 64.8428 241.094 65.2066 240.537C65.53 240.039 65.3953 239.522 64.7934 238.835L63.3696 237.205C62.341 236.019 61.9727 234.905 62.7273 233.742C63.6076 232.385 65.1303 232.282 67.0616 233.535C69.2894 234.986 69.9002 236.881 68.6965 238.732L68.692 238.727Z" fill="#FFB1CD"></path><path d="M38.5703 216.157L39.4866 215.245L50.7153 226.505L49.7991 227.417L38.5703 216.157Z" fill="#FFB1CD"></path><path d="M34.2643 201.982L33.0875 202.745L30.8598 199.305C29.8941 197.814 28.632 197.944 27.033 198.981L21.3018 202.696L23.8216 206.586L22.6448 207.349L19.9185 203.141C19.4199 202.372 19.5008 201.932 20.2239 201.465L26.5255 197.382C28.6949 195.976 30.5588 196.268 31.8254 198.231L34.2598 201.986L34.2643 201.982Z" fill="#FFB1CD"></path><path d="M18.6932 193.843C17.3547 191.341 18.226 188.736 20.5571 187.492C22.9017 186.239 25.5517 186.966 26.8856 189.468C28.2286 191.988 27.3573 194.593 25.0127 195.842C22.6816 197.086 20.0361 196.358 18.6887 193.839L18.6932 193.843ZM25.6819 190.115C24.7252 188.323 22.9017 188.035 21.3027 188.889C19.7172 189.733 18.9447 191.413 19.8969 193.201C20.8625 195.006 22.6861 195.298 24.2716 194.449C25.8706 193.596 26.6476 191.921 25.6819 190.111L25.6819 190.115Z" fill="#FFB1CD"></path><path d="M15.0602 186.063L13.0391 181.437L14.2922 180.889L16.1786 185.201L23.109 182.174L23.7513 183.638L16.7086 186.719C15.9361 187.056 15.4061 186.836 15.0692 186.063L15.0602 186.063Z" fill="#FFB1CD"></path><path d="M10.9663 176.357C10.0814 173.869 11.0112 171.708 13.6163 170.783L14.1597 170.59L16.5357 177.278C18.1617 176.645 19.1049 175.333 18.485 173.59C17.973 172.153 16.9265 171.569 15.6599 171.7L15.1299 170.208C16.8052 169.993 18.7635 170.559 19.6843 173.146C20.6589 175.89 19.1543 177.988 16.666 178.873C13.9396 179.843 11.8241 178.765 10.9663 176.362L10.9663 176.357ZM13.6163 172.441C12.1296 173.083 11.613 174.43 12.152 175.935C12.6461 177.323 13.8992 178.06 15.4623 177.637L13.6163 172.441Z" fill="#FFB1CD"></path><path d="M8.88137 169.606L8.48163 168.057L10.8307 167.446C9.15985 167.378 7.87528 166.431 7.37672 164.517C6.8602 162.532 7.83934 161.018 10.1704 160.412L15.3716 159.06L15.7758 160.61L10.7498 161.917C8.97569 162.379 8.45468 163.237 8.84095 164.715C9.33052 166.592 11.1271 167.369 13.4582 166.763L17.1278 165.811L17.532 167.36L8.88587 169.606L8.88137 169.606Z" fill="#FFB1CD"></path><path d="M13.5185 146.044C13.9496 149.866 12.4091 152.08 9.25153 152.435L9.06738 150.791C11.4793 150.522 12.4585 148.945 12.1441 146.16C11.897 143.982 11.093 143.097 9.70068 143.254C8.71704 143.367 8.04331 144.094 7.83221 145.599L7.31569 149.219C7.01925 151.258 5.97273 152.211 4.47257 152.377C2.29419 152.624 0.955727 151.182 0.632339 148.289C0.24607 144.862 1.68335 142.873 4.40071 142.567L4.58935 144.229C2.59063 144.454 1.72377 145.765 1.99326 148.137C2.19987 149.974 2.93648 150.886 4.22105 150.742C5.11486 150.643 5.73019 150.028 5.93231 148.613L6.4129 145.033C6.70036 142.94 7.76933 141.808 9.4267 141.619C11.6769 141.368 13.1457 142.684 13.5229 146.039L13.5185 146.044Z" fill="#FFB1CD"></path><path d="M11.453 139.971C10.6086 140.007 9.91688 139.392 9.87646 138.511C9.84052 137.649 10.4738 136.939 11.3182 136.903C12.1626 136.867 12.8723 137.519 12.9127 138.381C12.9531 139.261 12.2974 139.935 11.453 139.976L11.453 139.971Z" fill="#FFB1CD"></path><path d="M1.53889e-07 127.633L0.637793 118.852L2.03465 118.955L1.51364 126.105L5.74463 126.411L6.19827 120.159L7.55919 120.257L7.10555 126.51L11.3545 126.82L11.871 119.669L13.2679 119.768L12.6301 128.549L1.53889e-07 127.633Z" fill="#FFB1CD"></path><path d="M4.65625 116.727L4.90777 115.146L7.30174 115.528C5.80158 114.796 5.0021 113.412 5.3165 111.463C5.63989 109.442 7.14454 108.444 9.52503 108.822L14.8295 109.671L14.578 111.252L9.44868 110.43C7.63861 110.142 6.81666 110.717 6.57861 112.226C6.27319 114.144 7.60716 115.577 9.98317 115.954L13.7246 116.552L13.4731 118.128L4.65625 116.718L4.65625 116.727Z" fill="#FFB1CD"></path><path d="M10.812 106.904C8.18447 106.235 6.72473 104.173 7.35803 101.703C7.85209 99.7716 9.13666 98.8014 10.6234 98.5679L8.4809 98.0199L8.87167 96.4883L19.8579 99.291C20.5541 99.4707 20.8235 99.9468 20.6124 100.764L18.9236 107.38L17.5986 107.043L19.1976 100.778L17.127 100.248L17.127 100.23L14.9891 99.6818C16.2153 100.625 16.8396 102.098 16.3545 103.998C15.7212 106.469 13.4395 107.573 10.8075 106.904L10.812 106.904ZM15.1643 103.154C15.5999 101.447 14.9307 99.7177 12.7883 99.1698C10.6817 98.6308 9.24446 99.8255 8.80878 101.528C8.3776 103.217 9.03336 104.793 11.2072 105.35C13.3856 105.907 14.7331 104.838 15.1598 103.149L15.1643 103.154Z" fill="#FFB1CD"></path><path d="M5.68418 92.3152L6.22316 90.8105L12.2822 92.9755C11.2132 91.9649 10.7057 90.4467 11.3704 88.5872C12.2328 86.1662 14.5908 85.2904 17.142 86.2067C19.6932 87.123 20.9777 89.2969 20.1154 91.7133C19.4686 93.5234 18.1436 94.4038 16.594 94.5206L18.6556 95.2572L18.1167 96.7619L5.67969 92.3197L5.68418 92.3152ZM18.6511 91.7403C19.2395 90.1009 18.723 88.448 16.6075 87.6889C14.492 86.9343 13.0637 87.891 12.4753 89.5304C11.8869 91.1699 12.408 92.98 14.4561 93.7076C16.5356 94.4532 18.0672 93.3752 18.6511 91.7358L18.6511 91.7403Z" fill="#FFB1CD"></path><path d="M15.5255 78.5175C16.6349 76.1235 18.8133 75.2297 21.3195 76.393L21.8406 76.6355L18.8582 83.0765C20.4617 83.7592 22.0517 83.4852 22.8287 81.8098C23.471 80.4264 23.1296 79.2766 22.137 78.4771L22.8017 77.0443C24.1492 78.0639 25.1508 79.8335 23.9965 82.3309C22.7748 84.9719 20.2326 85.4166 17.8341 84.3072C15.2111 83.0899 14.452 80.8397 15.5255 78.5265L15.5255 78.5175ZM20.1607 77.5743C18.6471 76.9904 17.3401 77.5922 16.6664 79.043C16.0465 80.377 16.4238 81.7829 17.8386 82.5779L20.1563 77.5743L20.1607 77.5743Z" fill="#FFB1CD"></path><path d="M19.3732 71.2139L21.8301 66.8032L23.0203 67.468L20.7297 71.5778L27.3367 75.2609L26.5596 76.6577L19.8448 72.9118C19.1082 72.4985 18.9645 71.9461 19.3732 71.2095L19.3732 71.2139Z" fill="#FFB1CD"></path><path d="M27.2433 68.7479L28.1147 67.405C29.3498 68.2089 30.4951 67.7957 31.3979 66.4078C32.0851 65.3523 32.1031 64.5932 31.3351 64.0947C30.823 63.7623 30.3155 63.8836 29.5968 64.5303L27.7059 66.1518C26.9154 66.839 25.797 67.3735 24.6068 66.601C23.2953 65.7476 23.2638 64.1845 24.4181 62.4058C25.6713 60.4789 27.3421 59.8501 28.968 60.9056L28.0967 62.2486C27.1939 61.6602 26.2103 61.9207 25.4647 63.0661C24.8403 64.0318 24.8763 64.8897 25.4377 65.2535C25.9363 65.5769 26.4528 65.4421 27.14 64.8403L28.7704 63.4164C29.9562 62.3879 31.0701 62.0196 32.2334 62.7741C33.5898 63.6545 33.6931 65.1771 32.44 67.1085C30.9892 69.3363 29.0938 69.9472 27.2433 68.7434L27.2433 68.7479Z" fill="#FFB1CD"></path><path d="M49.7825 38.6187L50.6942 39.5349L39.4475 50.7684L38.5313 49.8521L49.778 38.6187L49.7825 38.6187Z" fill="#FFB1CD"></path><path fill-rule="evenodd" clip-rule="evenodd" d="M119.027 98.7199C128.803 90.7076 140.995 93.9966 147.913 100.423C156.116 108.042 162.611 120.243 162.154 135.88C164.49 135.3 166.913 134.496 169.42 133.435L173 141.808C168.686 143.636 164.562 144.828 160.643 145.506C156.272 159.798 142.721 172 126.506 172C113.312 172 101.817 164.552 96.2971 153.263C94.5584 149.707 93.419 145.783 93 141.613L102.099 140.708C102.41 143.809 103.253 146.691 104.519 149.281C108.532 157.488 116.866 162.9 126.506 162.9C136.992 162.9 146.44 155.52 150.657 146.178C135.815 145.574 124.805 137.814 118.701 131.739C109.274 122.357 108.442 107.395 119.027 98.7199ZM152.947 137.091C153.789 123.49 148.32 113.248 141.674 107.075C137.038 102.769 130.048 101.476 124.84 105.745C119.169 110.392 118.837 119.005 125.166 125.304C130.506 130.618 139.991 137.244 152.947 137.091Z" fill="#FFB1CD"></path></svg>