<svg xmlns="http://www.w3.org/2000/svg" width="48" height="44" viewBox="0 0 48 44" fill="none"><path fill-rule="evenodd" clip-rule="evenodd" d="M14.4243 2.61883C19.8422 -1.82681 26.599 -0.00189256 30.4331 3.56359C34.9792 7.7912 38.5788 14.561 38.3255 23.2371C39.6203 22.9154 44.6267 21.5286 46.0157 20.9396L48 25.5857C45.609 26.5995 39.6599 28.2022 37.4882 28.5785C35.0659 36.5084 27.5555 43.2787 18.5689 43.2787C11.257 43.2787 4.88645 39.1462 1.82727 32.8823C0.863647 30.9092 0.2322 28.7321 0 26.4185L5.04252 25.9161C5.2152 27.6366 5.68223 29.2358 6.38409 30.673C8.60811 35.2269 13.2264 38.2294 18.5689 38.2294C24.3804 38.2294 29.6166 34.1348 31.9538 28.9513C23.7284 28.6163 17.6267 24.3106 14.2434 20.9396C9.01892 15.7342 8.55789 7.43242 14.4243 2.61883ZM33.2226 23.9092C33.6898 16.3627 30.6585 10.68 26.9754 7.25489C24.4058 4.86539 20.5319 4.14836 17.6458 6.51651C14.503 9.09531 14.319 13.8742 17.8267 17.3693C20.7858 20.3175 26.0428 23.9942 33.2226 23.9092Z" fill="black"></path></svg>