<svg xmlns="http://www.w3.org/2000/svg" width="332" height="34" viewBox="0 0 332 34" fill="none"><g clip-path="url(#clip0_5055_54827)"><path d="M71.2708 13.9953H56.5539V0.625H50.0781V33.3728H56.5539V19.2351H71.2708V33.3728H77.7465V0.625H71.2708V13.9953Z" fill="#6A7383"></path><path d="M95.412 14.3109L87.7587 0.625H80.1953L92.0142 20.6356V33.3728H98.4899V20.7252L110.582 0.625H103.2L95.412 14.3109Z" fill="#6A7383"></path><path d="M136.483 4.26054C135.788 3.46371 134.974 2.82383 134.038 2.3409C133.103 1.85969 132.098 1.4906 131.026 1.23361C129.954 0.978345 128.844 0.812769 127.697 0.73688C126.549 0.662716 125.418 0.623047 124.301 0.623047H113.07V33.3709H119.546V21.853H124.483C126.385 21.853 128.195 21.7029 129.918 21.4011C131.638 21.101 133.155 20.5646 134.469 19.7971C135.781 19.0296 136.824 17.9671 137.593 16.6132C138.363 15.2576 138.748 13.5414 138.748 11.4648C138.748 9.80907 138.544 8.39305 138.138 7.21849C137.73 6.04394 137.178 5.05738 136.485 4.26054H136.483ZM131.524 14.1761C131.147 14.8695 130.633 15.4111 129.985 15.8026C129.335 16.1941 128.574 16.4649 127.697 16.6149C126.821 16.7667 125.885 16.8409 124.889 16.8409H119.546V5.68346H124.436C125.311 5.68346 126.202 5.73693 127.108 5.84214C128.014 5.94735 128.835 6.19571 129.575 6.58723C130.315 6.97875 130.919 7.55827 131.387 8.32578C131.854 9.09329 132.089 10.1557 132.089 11.5097C132.089 12.5945 131.901 13.4828 131.524 14.1744V14.1761Z" fill="#6A7383"></path><path d="M142.008 33.3728H165.919V28.133H148.484V19.2351H164.968V13.9953H148.484V5.86479H165.919V0.625H142.008V33.3728Z" fill="#6A7383"></path><path d="M194.24 15.6441C195.191 14.1539 195.667 12.4602 195.667 10.563C195.667 8.84688 195.395 7.3636 194.852 6.11315C194.309 4.86444 193.441 3.83131 192.248 3.01895C191.055 2.2066 189.516 1.60466 187.629 1.21142C185.743 0.819897 183.441 0.625 180.723 0.625H169.945V33.3728H176.421V20.5441H183.305L189.826 33.3728H197.026L189.736 19.1902C191.788 18.3175 193.291 17.1343 194.242 15.6441H194.24ZM187.289 14.2885C186.141 15.1181 184.301 15.5303 181.764 15.5303H176.421V5.68369H181.448C182.535 5.68369 183.545 5.75958 184.482 5.90963C185.418 6.05969 186.219 6.3322 186.883 6.72199C187.547 7.11351 188.067 7.62576 188.446 8.25702C188.823 8.89 189.011 9.67304 189.011 10.6061C189.011 12.2326 188.437 13.4589 187.291 14.2867L187.289 14.2885Z" fill="#6A7383"></path><path d="M222.499 16.8194C221.427 16.0812 220.22 15.5017 218.877 15.0808C217.533 14.66 216.197 14.3288 214.869 14.0874L210.566 13.3199C209.237 13.0784 208.144 12.6282 207.283 11.9642C206.422 11.3019 205.993 10.3981 205.993 9.25463C205.993 8.53196 206.181 7.9076 206.558 7.37983C206.935 6.85378 207.426 6.43121 208.03 6.11559C208.633 5.79996 209.313 5.56712 210.067 5.41534C210.821 5.26528 211.576 5.1894 212.33 5.1894C213.084 5.1894 213.854 5.27218 214.64 5.43776C215.425 5.60334 216.134 5.88964 216.769 6.29668C217.404 6.70373 217.947 7.22977 218.4 7.87828C218.853 8.52679 219.14 9.33224 219.261 10.2947H225.51C225.42 8.72858 225.019 7.31256 224.31 6.04832C223.601 4.78408 222.657 3.70783 221.479 2.81959C220.302 1.93134 218.951 1.24662 217.426 0.763686C215.901 0.282481 214.293 0.0410156 212.603 0.0410156C211.094 0.0410156 209.562 0.229013 208.007 0.605009C206.453 0.982729 205.049 1.55362 203.795 2.32114C202.541 3.08865 201.516 4.06831 200.715 5.25666C199.915 6.44674 199.515 7.86966 199.515 9.52542C199.515 10.9414 199.78 12.1833 200.307 13.2509C200.835 14.3202 201.545 15.2378 202.436 16.007C203.326 16.7745 204.367 17.4006 205.56 17.8818C206.752 18.363 208.012 18.7408 209.342 19.0115L213.508 19.7791C214.383 19.9308 215.19 20.1188 215.93 20.3431C216.67 20.569 217.312 20.8553 217.855 21.202C218.398 21.5487 218.821 21.9695 219.122 22.4662C219.423 22.9629 219.575 23.558 219.575 24.2513C219.575 25.1258 219.371 25.8554 218.963 26.4418C218.555 27.0282 218.028 27.4956 217.378 27.8423C216.727 28.1889 216.018 28.4373 215.249 28.5874C214.48 28.7374 213.733 28.8133 213.008 28.8133C212.041 28.8133 211.113 28.7167 210.222 28.5201C209.332 28.3252 208.531 27.9854 207.822 27.5042C207.113 27.023 206.517 26.3831 206.034 25.5846C205.55 24.7877 205.22 23.7857 205.038 22.5818H198.789C198.939 24.3583 199.377 25.9468 200.102 27.3473C200.826 28.7478 201.793 29.9378 203 30.9158C204.207 31.8954 205.633 32.6474 207.279 33.1735C208.924 33.6995 210.758 33.9634 212.781 33.9634C214.441 33.9634 216.065 33.7599 217.649 33.3546C219.235 32.9475 220.653 32.3232 221.906 31.4798C223.158 30.6364 224.17 29.5894 224.941 28.3407C225.71 27.092 226.096 25.6242 226.096 23.9374C226.096 22.2506 225.764 20.8277 225.1 19.6687C224.436 18.5096 223.568 17.561 222.496 16.8228L222.499 16.8194Z" fill="#6A7383"></path><path d="M256.548 4.69071C255.144 3.21605 253.453 2.07082 251.476 1.25846C249.498 0.446104 247.288 0.0390625 244.842 0.0390625C242.395 0.0390625 240.185 0.446104 238.207 1.25846C236.229 2.07082 234.539 3.21605 233.135 4.69071C231.731 6.1671 230.652 7.95049 229.898 10.0426C229.143 12.1365 228.766 14.4459 228.766 16.9761C228.766 19.5063 229.143 21.8175 229.898 23.9096C230.652 26.0035 231.733 27.7937 233.135 29.2857C234.539 30.7758 236.229 31.928 238.207 32.7403C240.183 33.5527 242.395 33.9597 244.842 33.9597C247.288 33.9597 249.498 33.5527 251.476 32.7403C253.453 31.928 255.144 30.7758 256.548 29.2857C257.952 27.7955 259.031 26.0035 259.785 23.9096C260.539 21.8175 260.918 19.5063 260.918 16.9761C260.918 14.4459 260.539 12.1365 259.785 10.0426C259.029 7.95049 257.951 6.16538 256.548 4.69071ZM253.468 22.0796C252.97 23.556 252.298 24.7892 251.454 25.7827C250.608 26.7761 249.612 27.5299 248.466 28.0404C247.318 28.5526 246.111 28.8079 244.843 28.8079C243.576 28.8079 242.367 28.5526 241.221 28.0404C240.073 27.5281 239.077 26.7761 238.233 25.7827C237.387 24.7892 236.716 23.5543 236.218 22.0796C235.72 20.605 235.471 18.9027 235.471 16.9761C235.471 15.0496 235.72 13.3559 236.218 11.895C236.716 10.4341 237.387 9.20784 238.233 8.21438C239.078 7.22092 240.074 6.46893 241.221 5.95668C242.367 5.44443 243.576 5.18917 244.843 5.18917C246.111 5.18917 247.318 5.44615 248.466 5.95668C249.612 6.46893 250.608 7.22092 251.454 8.21438C252.3 9.20784 252.97 10.4359 253.468 11.895C253.966 13.3559 254.216 15.0496 254.216 16.9761C254.216 18.9027 253.966 20.605 253.468 22.0796Z" fill="#6A7383"></path><path d="M271.968 0.625H265.492V33.3728H276.721H287.952V28.133H271.968V0.625Z" fill="#6A7383"></path><path d="M297.374 0.625H290.898V33.3728H297.374V0.625Z" fill="#6A7383"></path><path d="M329.863 8.93657C328.941 6.82893 327.667 5.15764 326.036 3.92272C324.406 2.6878 322.474 1.8306 320.24 1.34767C318.006 0.866465 315.59 0.625 312.995 0.625H303.258V33.3728H312.995C315.59 33.3728 318.006 33.1314 320.24 32.6502C322.474 32.169 324.406 31.3031 326.036 30.0527C327.667 28.804 328.941 27.1241 329.863 25.0164C330.783 22.9088 331.244 20.2285 331.244 16.9756C331.244 13.7228 330.784 11.0442 329.863 8.93657ZM323.546 22.9157C322.882 24.4059 321.992 25.5511 320.875 26.3479C319.758 27.1465 318.49 27.6743 317.07 27.9295C315.651 28.1848 314.202 28.3141 312.723 28.3141H309.735V5.68369H312.723C314.202 5.68369 315.651 5.81132 317.07 6.06831C318.488 6.3253 319.758 6.85135 320.875 7.64991C321.992 8.44847 322.882 9.59198 323.546 11.0822C324.21 12.5723 324.542 14.5368 324.542 16.9774C324.542 19.4179 324.21 21.4272 323.546 22.9174V22.9157Z" fill="#6A7383"></path><path d="M17.1719 17.4863L21.7628 33.3747H33.5886V21.3722C28.4945 19.0093 22.4285 17.5467 17.1736 17.4863H17.1719Z" fill="#6A7383"></path><path d="M17.1728 17.4863L12.5819 33.3747H0.757812V21.3722C5.85194 19.0093 11.9179 17.5467 17.1728 17.4863Z" fill="#6A7383"></path><path d="M17.1728 16.5154L12.5836 0.626953H0.757812V12.6295C5.85194 14.9924 11.9179 16.455 17.1728 16.5154Z" fill="#6A7383"></path><path d="M17.1719 16.5154L21.7628 0.626953H33.5886V12.6295C28.4945 14.9924 22.4285 16.455 17.1736 16.5154H17.1719Z" fill="#6A7383"></path></g><defs><clipPath id="clip0_5055_54827"><rect width="332" height="34" fill="white"></rect></clipPath></defs></svg>