<svg xmlns="http://www.w3.org/2000/svg" width="274" height="58" viewBox="0 0 274 58" fill="none"><g clip-path="url(#clip0_5055_54844)"><path d="M7.61111 50.165C11.8429 50.165 15.2914 46.8728 15.2914 42.8238C15.2914 38.8357 11.8429 35.4192 7.61388 35.4192C3.31844 35.4192 0 38.8357 0 42.8211C0 46.8728 3.31844 50.165 7.61111 50.165ZM34.5461 49.2784V31.2432C34.5461 27.3185 37.4107 24.7251 41.3795 24.7251C44.3714 24.7251 46.5828 26.9374 46.5828 29.7877V49.2784H60.9V31.2432C60.9 27.382 63.8918 24.7251 67.6005 24.7251C70.5951 24.7251 73.003 26.4955 73.003 29.7877V49.2784H87.3174V27.8239C87.3174 19.9138 80.9407 15.6716 72.4163 15.6716C66.6263 15.6716 62.0043 17.5718 58.8823 21.2423C56.4108 17.5718 52.3755 15.6743 46.389 15.6743C41.1194 15.6743 36.954 17.3812 34.0258 20.8004L33.6992 16.6244H20.2317V49.2784H34.5461ZM114.715 50.4799C126.948 50.4799 137.814 44.2158 137.814 33.1406C137.814 21.9383 127.338 15.5473 114.715 15.5473C102.351 15.5473 91.6156 21.687 91.6156 33.1406C91.6156 44.2158 102.351 50.4799 114.715 50.4799ZM114.648 41.4319C109.832 41.4319 106.06 37.6342 106.06 33.0136C106.06 28.4564 109.835 24.598 114.648 24.598C119.464 24.598 123.366 28.4564 123.366 33.0136C123.366 37.6342 119.464 41.4319 114.648 41.4319ZM156.424 49.2784V31.8757C156.424 27.5091 159.612 25.0399 163.905 25.0399C167.55 25.0399 169.761 27.0009 169.761 30.2296V49.2784H184.078V27.6361C184.078 19.8503 177.441 15.7378 168.917 15.7378C163.254 15.7378 158.962 17.5718 156.033 21.1153L155.513 16.6244H142.109V49.2784H156.424ZM233.287 16.6244H216.045L209.541 22.1924L203.618 27.6334L203.748 20.7369V4.2207H189.434V49.2784H203.748V39.0898L207.197 36.5571L210.255 40.4818L217.282 49.2784H234.718L216.892 29.7877L233.287 16.6244Z" fill="#6A7383"></path><path d="M253.18 50.6066C266.387 50.6066 274.001 47.0631 274.001 38.7083C274.001 33.0768 269.576 29.3454 258.906 28.4561L251.422 27.8236C248.038 27.5088 246.543 26.7465 246.543 25.1667C246.543 23.4571 248.821 22.5705 252.529 22.5705C257.212 22.5705 258.906 23.5841 259.426 25.8627L272.7 25.5451C271.53 18.9634 265.02 15.4199 253.05 15.4199C239.776 15.4199 233.853 19.7865 233.853 26.4952C233.853 32.2537 238.279 35.6094 248.494 36.5568L256.172 37.2528C259.1 37.5069 260.727 38.2664 260.727 40.0395C260.727 42.0005 258.58 43.1412 253.83 43.1412C248.821 43.1412 246.997 41.7464 246.413 39.153L232.812 39.4678C233.726 46.3035 239.646 50.6066 253.18 50.6066Z" fill="#6A7383"></path></g><defs><clipPath id="clip0_5055_54844"><rect width="274" height="58" fill="white"></rect></clipPath></defs></svg>