<svg xmlns="http://www.w3.org/2000/svg" xmlns:xlink="http://www.w3.org/1999/xlink" viewBox="0 0 128 208" width="128" height="208" preserveAspectRatio="xMidYMid meet" style="width: 100%; height: 100%; transform: translate3d(0px, 0px, 0px); content-visibility: visible;"><defs><clipPath id="__lottie_element_12"><rect width="128" height="208" x="0" y="0"></rect></clipPath></defs><g clip-path="url(#__lottie_element_12)"><g transform="matrix(1.1164699792861938,0,0,1.1055599451065063,63.62491226196289,86.31234741210938)" opacity="1" style="display: block;"><g opacity="1" transform="matrix(1,0,0,1,0.34200000762939453,-19.61100196838379)"><path fill="rgb(255,255,255)" fill-opacity="1" d=" M14.343000411987305,0.0000019073486328125 C14.343000411987305,0.0000019073486328125 14.343000411987305,72 14.343000411987305,72 C14.343000411987305,79.91590118408203 7.915902137756348,86.34300231933594 0,86.34300231933594 C0,86.34300231933594 0,86.34300231933594 0,86.34300231933594 C-7.915902137756348,86.34300231933594 -14.343000411987305,79.91590118408203 -14.343000411987305,72 C-14.343000411987305,72 -14.343000411987305,0.0000019073486328125 -14.343000411987305,0.0000019073486328125 C-14.343000411987305,-7.915900230407715 -7.915902137756348,-14.342998504638672 0,-14.342998504638672 C0,-14.342998504638672 0,-14.342998504638672 0,-14.342998504638672 C7.915902137756348,-14.342998504638672 14.343000411987305,-7.915900230407715 14.343000411987305,0.0000019073486328125z"></path><path stroke-linecap="butt" stroke-linejoin="miter" fill-opacity="0" stroke-miterlimit="4" stroke="rgb(255,255,255)" stroke-opacity="1" stroke-width="0" d=" M14.343000411987305,0.0000019073486328125 C14.343000411987305,0.0000019073486328125 14.343000411987305,72 14.343000411987305,72 C14.343000411987305,79.91590118408203 7.915902137756348,86.34300231933594 0,86.34300231933594 C0,86.34300231933594 0,86.34300231933594 0,86.34300231933594 C-7.915902137756348,86.34300231933594 -14.343000411987305,79.91590118408203 -14.343000411987305,72 C-14.343000411987305,72 -14.343000411987305,0.0000019073486328125 -14.343000411987305,0.0000019073486328125 C-14.343000411987305,-7.915900230407715 -7.915902137756348,-14.342998504638672 0,-14.342998504638672 C0,-14.342998504638672 0,-14.342998504638672 0,-14.342998504638672 C7.915902137756348,-14.342998504638672 14.343000411987305,-7.915900230407715 14.343000411987305,0.0000019073486328125z"></path></g></g><g transform="matrix(0.9375,0,0,0.9668899774551392,64,104.5)" opacity="1" style="display: block;"><g opacity="1" transform="matrix(1,0,0,1,-0.0430000014603138,-0.17599999904632568)"><path fill="rgb(255,255,255)" fill-opacity="0" d=" M63.957000732421875,-39.701995849609375 C63.957000732421875,-39.701995849609375 63.957000732421875,39.701995849609375 63.957000732421875,39.701995849609375 C63.957000732421875,74.99986267089844 35.29786682128906,103.65899658203125 0,103.65899658203125 C0,103.65899658203125 0,103.65899658203125 0,103.65899658203125 C-35.29786682128906,103.65899658203125 -63.957000732421875,74.99986267089844 -63.957000732421875,39.701995849609375 C-63.957000732421875,39.701995849609375 -63.957000732421875,-39.701995849609375 -63.957000732421875,-39.701995849609375 C-63.957000732421875,-74.99986267089844 -35.29786682128906,-103.65899658203125 0,-103.65899658203125 C0,-103.65899658203125 0,-103.65899658203125 0,-103.65899658203125 C35.29786682128906,-103.65899658203125 63.957000732421875,-74.99986267089844 63.957000732421875,-39.701995849609375z"></path><path stroke-linecap="butt" stroke-linejoin="miter" fill-opacity="0" stroke-miterlimit="4" stroke="rgb(255,255,255)" stroke-opacity="1" stroke-width="8" d=" M63.957000732421875,-39.701995849609375 C63.957000732421875,-39.701995849609375 63.957000732421875,39.701995849609375 63.957000732421875,39.701995849609375 C63.957000732421875,74.99986267089844 35.29786682128906,103.65899658203125 0,103.65899658203125 C0,103.65899658203125 0,103.65899658203125 0,103.65899658203125 C-35.29786682128906,103.65899658203125 -63.957000732421875,74.99986267089844 -63.957000732421875,39.701995849609375 C-63.957000732421875,39.701995849609375 -63.957000732421875,-39.701995849609375 -63.957000732421875,-39.701995849609375 C-63.957000732421875,-74.99986267089844 -35.29786682128906,-103.65899658203125 0,-103.65899658203125 C0,-103.65899658203125 0,-103.65899658203125 0,-103.65899658203125 C35.29786682128906,-103.65899658203125 63.957000732421875,-74.99986267089844 63.957000732421875,-39.701995849609375z"></path></g></g></g></svg>